<svg width="200" height="60" viewBox="0 0 200 60" fill="none" xmlns="http://www.w3.org/2000/svg">
  <!-- Globe with spade symbol -->
  <circle cx="30" cy="30" r="25" fill="#1770EF" stroke="#04CDB6" stroke-width="2"/>
  <g transform="translate(30, 30)">
    <!-- Grid lines on globe -->
    <path d="M-20,0 L20,0 M0,-20 L0,20 M-14,-14 L14,14 M-14,14 L14,-14" stroke="#44BEEF" stroke-width="1" opacity="0.6"/>
    <!-- Spade symbol -->
    <path d="M0,-8 C-4,-4 -4,0 0,4 C4,0 4,-4 0,-8 Z M-2,4 L2,4 L1,8 L-1,8 Z" fill="white"/>
  </g>
  
  <!-- Decorative stars -->
  <g fill="#FEC525">
    <path d="M10,10 L12,16 L18,16 L13,20 L15,26 L10,22 L5,26 L7,20 L2,16 L8,16 Z" transform="scale(0.4)"/>
    <path d="M45,5 L47,11 L53,11 L48,15 L50,21 L45,17 L40,21 L42,15 L37,11 L43,11 Z" transform="scale(0.3)"/>
    <path d="M50,45 L52,51 L58,51 L53,55 L55,61 L50,57 L45,61 L47,55 L42,51 L48,51 Z" transform="scale(0.25)"/>
  </g>
  
  <!-- Text -->
  <text x="70" y="25" font-family="Arial, sans-serif" font-size="18" font-weight="bold" fill="#1770EF">Disco</text>
  <text x="70" y="45" font-family="Arial, sans-serif" font-size="18" font-weight="bold" fill="#FEC525">ACES</text>
</svg>